<?xml version="1.0" standalone="no"?><!DOCTYPE svg PUBLIC "-//W3C//DTD SVG 1.1//EN" "http://www.w3.org/Graphics/SVG/1.1/DTD/svg11.dtd"><svg t="1552981826483" class="icon" style="" viewBox="0 0 1024 1024" version="1.1" xmlns="http://www.w3.org/2000/svg" p-id="1157" xmlns:xlink="http://www.w3.org/1999/xlink" width="120" height="120"><defs><style type="text/css"></style></defs><path d="M938.667 682.667A85.333 85.333 0 0 1 853.333 768h-512A85.333 85.333 0 0 1 256 682.667v-512a85.038 85.038 0 0 1 85.333-85.334h512a85.333 85.333 0 0 1 85.334 85.334v512m-256 170.666v85.334h-512a85.333 85.333 0 0 1-85.334-85.334V298.667h85.334v554.666h512m-128-256l298.666-298.666-60.16-60.16-238.506 238.08-131.84-131.414-60.16 60.16 192 192z" fill="#8ce0ff" p-id="1158"></path></svg>