<?xml version="1.0" standalone="no"?><!DOCTYPE svg PUBLIC "-//W3C//DTD SVG 1.1//EN" "http://www.w3.org/Graphics/SVG/1.1/DTD/svg11.dtd"><svg t="1555930994043" class="icon" style="" viewBox="0 0 1024 1024" version="1.1" xmlns="http://www.w3.org/2000/svg" p-id="2202" xmlns:xlink="http://www.w3.org/1999/xlink" width="120" height="120"><defs><style type="text/css"></style></defs><path d="M511.832894 1018.198723c-29.475605 0-59.505743-2.836654-89.002676-7.934099a28.281224 28.281224 0 0 1-22.671902-32.866792 28.281224 28.281224 0 0 1 32.866793-22.69323c50.462577 9.085823 101.479687 9.640357 151.920935 1.151724a443.691032 443.691032 0 0 0 147.378024-53.853764c52.744697-30.627329 98.0885-70.297824 134.367808-118.478281a450.9213 450.9213 0 0 0 75.949804-155.333452c14.737802-56.093228 19.280714-113.93537 11.901148-171.180321a436.99397 436.99397 0 0 0-57.244951-168.364996c-28.899743-49.310853-63.494121-90.133072-106.001271-124.13026-11.901149-9.661685-14.183269-27.790675-3.96705-39.691824 10.194891-11.901149 27.769347-14.183269 39.670496-3.96705a490.165231 490.165231 0 0 1 119.054143 140.019787 502.962165 502.962165 0 0 1 64.048655 189.885173 505.90546 505.90546 0 0 1-13.031544 193.319018 501.917082 501.917082 0 0 1-85.590161 174.592837 494.793456 494.793456 0 0 1-151.366402 133.216084c-51.592973 30.030139-107.707528 51.01711-166.082876 60.636139-27.214813 3.412516-54.429626 5.673307-82.198973 5.673307zM180.77621 884.98264c-6.803703 0-13.607407-2.836654-19.280714-7.358238a424.516959 424.516959 0 0 1-87.872281-113.380835A503.62334 503.62334 0 0 1 9.595888 574.912927c-7.934099-64.624517-3.412516-129.803568 13.607407-193.297689 17.019922-63.494121 45.365131-122.445331 85.035627-174.592837a494.793456 494.793456 0 0 1 151.345074-133.216084C342.892036 25.604532 439.274278 2.356769 537.341449 6.89968c15.292336 0.575862 27.769347 14.183269 26.638952 29.496933-0.575862 15.292336-14.16194 27.769347-29.475605 26.638951a447.124876 447.124876 0 0 0-246.59692 58.95121c-52.70204 31.181863-98.067171 70.852358-134.346479 119.032815a450.9213 450.9213 0 0 0-75.949804 155.333451c-14.737802 56.114556-19.280714 113.93537-11.901149 171.180322a436.99397 436.99397 0 0 0 57.244952 168.364996c0 0.575862 0.575862 0.575862 0.575862 1.130396 18.704852 35.724774 44.213407 68.037033 76.525666 98.643033 11.325287 10.770753 11.901149 28.345209 1.706258 40.246358a30.712642 30.712642 0 0 1-20.986972 9.064495zM511.832894 1023.872031c-30.051467 0-60.102934-2.836654-90.133072-8.509961a34.551722 34.551722 0 0 1-22.117368-14.161941 33.783906 33.783906 0 0 1-5.673307-25.508555 34.551722 34.551722 0 0 1 14.183268-22.117368c7.358237-5.097445 16.422732-7.358237 25.508556-5.651979a428.270727 428.270727 0 0 0 149.660144 1.130396 426.095248 426.095248 0 0 0 145.671766-53.299231h0.575862c52.147506-30.030139 96.936776-69.1461 132.66155-116.772023a442.773919 442.773919 0 0 0 74.819407-153.051331 450.238797 450.238797 0 0 0 11.901149-169.495392 434.221301 434.221301 0 0 0-56.135884-166.082876c-28.323881-48.756319-62.918259-89.002676-104.870875-123.021193-14.716474-11.901149-16.998594-33.442654-5.097445-47.604595 11.901149-14.737802 33.442654-17.019922 47.625923-5.118773 48.756319 39.115962 87.872281 85.611489 120.739073 141.726044a505.628193 505.628193 0 0 1 65.200379 192.167294 495.156036 495.156036 0 0 1-13.607407 195.579809 503.772638 503.772638 0 0 1-86.166022 176.853629 506.50265 506.50265 0 0 1-153.051332 134.922341c-52.168835 30.606001-108.837924 51.571644-168.364996 61.212001a511.152203 511.152203 0 0 1-83.329369 6.803704zM180.77621 890.655947c-8.509961 0-16.998594-3.412516-23.247764-9.064495C120.118742 846.421212 90.643138 808.456974 68.547098 767.08022a502.06638 502.06638 0 0 1-64.624517-191.591431 517.124106 517.124106 0 0 1 13.586078-195.579809 503.772638 503.772638 0 0 1 86.166023-176.853629 506.50265 506.50265 0 0 1 153.07266-134.922341C341.207107 19.376691 438.143882-3.871073 537.341449 0.671839c18.704852 1.130396 33.442654 16.998594 32.312259 35.724774a34.167814 34.167814 0 0 1-34.018516 32.290931h-1.706258c-86.166023-3.96705-170.049926 15.889526-243.738938 58.396675-51.592973 30.606001-96.382242 69.743291-132.085688 117.347886a453.032794 453.032794 0 0 0-74.819407 153.051331 438.721556 438.721556 0 0 0-11.346615 169.495392 434.221301 434.221301 0 0 0 56.114556 166.082876 1.748914 1.748914 0 0 1 0.575862 1.130396c18.704852 35.148912 43.083011 66.906637 75.395269 96.936775 6.803703 6.249169 10.194891 14.737802 10.770753 23.823626 0.554534 9.064495-2.836654 17.574456-9.085823 24.378159a32.354915 32.354915 0 0 1-24.932693 11.325287z m303.287337-476.173917l-97.512637-104.295012c-13.031545-13.031545-10.770753-34.57305 2.260791-47.625923 13.052873-13.031545 34.594378-10.770753 47.625923 2.28212l97.49131 103.71915c13.052873 13.052873 10.770753 34.594378-2.260792 47.625923-14.737802 11.346615-34.57305 11.346615-47.625923-1.706258z m24.356831 15.313665c-10.194891 0-20.41111-3.96705-28.345208-11.346615l-97.49131-104.295013c-14.737802-14.737802-13.607407-39.670496 2.260792-55.560022 14.737802-14.716474 39.670496-13.607407 55.560022 2.28212l97.491309 103.719151c14.737802 14.737802 13.607407 39.670496-2.260791 55.560022l-0.575862 0.575862-0.554534 0.554534a44.746613 44.746613 0 0 1-26.084418 8.509961z m-19.835247-61.212002l103.740478-97.512637c13.031545-13.031545 34.57305-10.770753 47.604595 2.260792a33.357341 33.357341 0 0 1-2.260791 45.365131l-103.740479 97.491309a33.869219 33.869219 0 0 1-47.604595 0c-13.052873-12.477011-10.770753-34.57305 2.260792-47.625923z m21.541505 63.472793c-10.770753 0-20.41111-3.96705-27.769347-11.325286-7.379565-7.379565-10.770753-17.574456-10.216219-28.366537 0.575862-10.194891 5.118774-20.389782 12.477011-27.193485l103.740479-97.512638c14.716474-14.716474 39.670496-13.586078 55.560022 2.28212l0.554534 0.554534a39.350572 39.350572 0 0 1-2.836654 53.29923l-103.740479 97.49131a40.480968 40.480968 0 0 1-27.769347 10.770752zM800.361101 93.641565l147.378024 28.345209c17.574456 4.521583 30.072795 21.541506 26.084417 39.115962v2.260791c-4.521583 17.574456-21.541506 30.051467-39.115962 26.084418l-147.378024-28.366537c-17.574456-4.521583-30.051467-21.541506-26.084417-39.094634v-2.260792c4.542912-17.574456 22.117368-30.627329 39.115962-26.084417z m141.726045 99.773429c-2.836654 0-5.118774-0.575862-7.379566-1.130396l-147.378024-28.366537a41.248784 41.248784 0 0 1-23.247763-15.868198c-5.673307-7.934099-7.358237-17.553128-5.673308-26.638951v-2.836654c5.118774-19.835248 24.954021-32.866792 43.083012-28.345209l147.378024 28.366537c9.085823 2.260792 17.595784 7.912771 23.247763 15.868199 5.673307 7.934099 7.379565 17.574456 5.673308 26.638951v2.836654a41.248784 41.248784 0 0 1-15.868198 23.247763c-6.803703 3.945721-13.607407 6.227841-19.835248 6.227841zM61.743395 809.032836l147.378024 28.345209c17.574456 4.521583 30.051467 21.541506 26.084417 39.115962v2.260791c-4.542912 17.574456-21.541506 30.051467-39.115962 26.084418l-147.378024-28.366538c-17.595784-4.521583-30.072795-21.541506-26.084417-39.094633v-2.28212c2.260792-17.574456 21.541506-30.606001 39.115962-26.063089z m141.150183 99.197567c-2.28212 0-5.118774-0.575862-7.379566-1.130396l-147.378024-28.366537c-19.835248-5.076117-32.888121-24.356831-28.366537-42.485821v-2.28212c1.151724-9.064495 6.825032-17.574456 14.759131-23.247763 8.488633-5.651979 18.704852-7.934099 28.345209-5.65198l147.378024 28.345209c9.064495 2.260792 17.574456 7.934099 23.247763 15.868199 5.673307 7.934099 7.358237 17.574456 5.673308 26.660279v2.815325c-5.118774 17.574456-20.41111 29.475605-36.279308 29.475605z m467.663955-422.298824H351.977859c-17.574456 0-30.051467-13.052873-30.051466-30.072795v-6.782375c0-17.574456 13.031545-30.072795 30.051466-30.072795h318.579674c17.574456 0 30.030139 13.052873 30.030139 30.072795v6.227841c0.575862 17.574456-12.455682 30.606001-30.030139 30.606001z m0 5.651979H351.977859c-20.41111 0-36.279308-15.313664-36.279308-36.279308v-6.227841c0-20.41111 15.292336-36.279308 36.25798-36.279308h318.601002c20.41111 0 36.25798 15.292336 36.25798 36.25798v6.249169c0 20.965644-15.84687 36.25798-36.25798 36.25798z m-191.036897 228.446601V479.106547c0-17.574456 13.031545-30.030139 30.030138-30.030138h6.24917c17.574456 0 30.030139 13.010216 30.030138 30.030138v242.62987c0 17.574456-13.010216 30.030139-30.030138 30.030139h-8.509961a31.971007 31.971007 0 0 1-27.769347-31.736397z m-5.118774-76.525665v-78.786458h78.807786v78.786458h-78.786458z" fill="#1c92ff" p-id="2203"></path><path d="M351.977859 424.122387c-14.183269 0-24.954021 10.216219-24.954021 24.954022v6.227841c0 14.16194 10.216219 24.954021 24.954021 24.954021h318.579674c14.16194 0 24.954021-10.216219 24.954022-24.954021v-6.227841c0-14.183269-10.237547-24.954021-24.954022-24.954022H351.977859zM351.977859 637.276652c-17.574456 0-30.051467-13.052873-30.051466-30.072795v-6.206513c0-17.574456 13.031545-30.072795 30.051466-30.072795h318.579674c17.574456 0 30.030139 13.052873 30.030139 30.072795v6.227842c0.575862 16.998594-12.455682 30.051467-30.030139 30.051466H351.977859zM489.608885 411.986628l0.682504 0.810473c5.097445 5.097445 12.477011 7.934099 19.835247 7.934099 7.379565 0 14.737802-2.836654 19.835248-7.934099l103.740479-97.512638c10.216219-10.194891 10.770753-26.660279 1.706258-37.409704-11.346615-11.346615-29.475605-11.901149-39.670496-2.260792 0.405236 0-53.469856 50.718515-83.521323 78.99974l-79.767555-85.803443c-11.303958-11.346615-29.454277-12.477011-39.670496-2.28212-11.325287 11.346615-12.455682 29.475605-2.260792 39.670496l97.49131 104.316341c0.511877 0.511877 1.066411 1.002427 1.599616 1.471647z" fill="#1c92ff" p-id="2204"></path><path d="M194.57557 837.740625l12.839591 2.474074c7.934099 1.706258 14.737802 6.803703 19.280714 13.010216 5.118774 6.825032 6.227841 14.183269 4.542912 21.541506v2.857981c-3.988378 16.422732-19.835248 27.214813-34.594379 23.247764l-147.378024-28.366537c-16.422732-3.945721-27.214813-19.835248-23.802297-35.127584v-2.836654a27.300126 27.300126 0 0 1 11.901148-18.12899 29.7742 29.7742 0 0 1 22.671902-4.542911l59.889651 11.51724a394.572134 394.572134 0 0 1-40.608937-61.979817c-34.018516-57.799486-55.005488-120.739073-63.494121-187.04852a494.281578 494.281578 0 0 1 13.031544-191.058225 501.511846 501.511846 0 0 1 84.459765-172.88658c40.246358-53.853764 90.708934-98.067171 149.660144-132.085687 75.39527-43.637545 160.985431-66.330775 249.412245-66.330775h24.954021a22.778543 22.778543 0 0 1 21.541506 23.823625 22.778543 22.778543 0 0 1-23.823625 21.541506c-87.872281-4.542912-174.592837 15.868198-249.412245 59.505743-53.853764 31.181863-99.773429 71.449549-136.607272 120.184539a450.068171 450.068171 0 0 0-76.525665 157.018382 447.4448 447.4448 0 0 0-11.922477 173.462441 448.383242 448.383242 0 0 0 57.820814 170.625787l0.575862 1.151724a359.167283 359.167283 0 0 0 75.587223 98.429752zM877.270675 174.795455a510.746967 510.746967 0 0 1 63.686075 87.211106 494.729471 494.729471 0 0 1 63.472793 187.624382 494.281578 494.281578 0 0 1-13.010216 191.036897 501.511846 501.511846 0 0 1-84.481093 172.886579c-40.246358 53.853764-90.708934 98.067171-149.660144 132.085688a478.946586 478.946586 0 0 1-164.397947 60.081606 495.731898 495.731898 0 0 1-81.623111 6.825031c-28.899743 0-58.95121-2.836654-87.87228-7.955427a22.117368 22.117368 0 0 1-14.716475-9.619029 22.351978 22.351978 0 0 1-3.412515-17.019922c1.130396-6.227841 4.542912-11.325287 9.640357-14.716475 3.96705-2.28212 8.509961-3.988378 13.031544-3.988377 1.130396 0 2.836654 0.575862 4.542912 0.575862 51.01711 9.619029 102.588755 9.619029 153.627193 1.130395a445.823855 445.823855 0 0 0 149.084282-54.429626c53.277902-31.181863 99.176239-71.42822 136.031409-120.163211a450.068171 450.068171 0 0 0 76.546994-157.039709 451.091926 451.091926 0 0 0 11.901149-174.038303 448.383242 448.383242 0 0 0-57.820814-170.625788 451.305208 451.305208 0 0 0-107.046353-125.751205l-6.334483-1.215709a38.17752 38.17752 0 0 1-19.280714-12.455682 25.103319 25.103319 0 0 1-4.521583-21.541506V120.83505c3.96705-16.44406 19.835248-27.214813 34.57305-23.247764l147.378024 27.769347c7.934099 1.706258 14.737802 6.825032 19.280714 13.052873 5.118774 6.803703 6.227841 14.16194 4.542912 21.541506v2.815325c-1.706258 7.379565-6.825032 14.183269-13.052873 18.72618-6.803703 5.097445-14.16194 6.227841-21.541506 4.521584l-58.567301-11.261302z" fill="#1c92ff" p-id="2205"></path><path d="M541.863033 632.157879v89.578538c0 14.716474-10.770753 24.954021-24.932693 24.954022h-8.509962a27.449424 27.449424 0 0 1-22.671901-27.236142v-87.296418h-133.770618c-14.737802 0-24.954021-10.770753-24.954021-24.954022v-6.206513c0-14.737802 10.770753-24.954021 24.954021-24.954021h133.770618v-96.936776c0-14.716474 10.770753-24.954021 24.954021-24.954021h6.227842c14.737802 0 24.954021 10.792081 24.954021 24.954021v96.936776h128.673172c14.716474 0 24.954021 10.770753 24.954022 24.954021v6.227842c0 14.737802-10.792081 24.954021-24.954022 24.954021H541.863033z" fill="#1c92ff" p-id="2206"></path></svg>