<?xml version="1.0" standalone="no"?><!DOCTYPE svg PUBLIC "-//W3C//DTD SVG 1.1//EN" "http://www.w3.org/Graphics/SVG/1.1/DTD/svg11.dtd"><svg t="1557470137353" class="icon" style="" viewBox="0 0 1024 1024" version="1.1" xmlns="http://www.w3.org/2000/svg" p-id="5325" xmlns:xlink="http://www.w3.org/1999/xlink" width="200" height="200"><defs><style type="text/css"></style></defs><path d="M949.84049 379.46522l-74.825559-74.812012c-10.941271-10.939013-28.689791-10.939013-39.601711 0-15.858747 15.861005-36.944287 24.600926-59.400308 24.600926-46.329938 0-84.014781-37.693875-84.014782-84.014781 0-22.437959 8.75121-43.546078 24.614473-59.407082a27.992133 27.992133 0 0 0 0-39.601711l-74.823301-74.816528c-10.939013-10.93224-28.673987-10.93224-39.599453 0L70.099996 603.503885a27.958266 27.958266 0 0 0-8.204825 19.800855c0 7.423627 2.953195 14.549226 8.204825 19.800856l74.832332 74.821043c10.93224 10.93224 28.673987 10.93224 39.59268 0 15.861005-15.870036 36.946545-24.607699 59.400308-24.607699 46.329938 0 84.014781 37.684844 84.014782 84.014781 0 22.433444-8.75121 43.539304-24.614473 59.413856a28.012453 28.012453 0 0 0-8.204824 19.800855c0 7.416854 2.955453 14.549226 8.204824 19.800856l74.827817 74.812012c5.468378 5.477409 12.636874 8.204824 19.800855 8.204824s14.332478-2.727415 19.800856-8.204824l532.089853-532.089853a27.956008 27.956008 0 0 0 8.204824-19.800856 28.044062 28.044062 0 0 0-8.20934-19.805371zM734.008908 555.706381l-22.207664-22.214438c-10.925466-10.93224-28.673987-10.93224-39.599454 0-10.941271 10.939013-10.941271 28.667213 0 39.599454l22.207665 22.207664-296.457415 296.464188-37.192645-37.19716c15.082066-22.711152 23.189805-49.355382 23.189805-77.236883 0-77.205274-62.816351-140.023883-140.023884-140.023883-27.89279 0-54.532504 8.094192-77.239141 23.176257l-37.172324-37.179097L425.955461 326.847325l22.207665 22.205407c5.470635 5.477409 12.636874 8.204824 19.800855 8.204824s14.332478-2.727415 19.800856-8.204824c10.941271-10.93224 10.941271-28.66044 0-39.599453l-22.207665-22.207665 156.433532-156.431273 37.192645 37.179097c-15.082066 22.71341-23.189805 49.371187-23.189805 77.245915 0 77.212047 62.816351 140.023883 140.023883 140.023883 27.89279 0 54.532504-8.089677 77.23011-23.171742l37.183614 37.172324-156.422243 156.442563z" fill="#8a8a8a" p-id="5326"></path><path d="M571.77736 393.46806l-28.003422-28.003422c-10.925466-10.93224-28.687534-10.93224-39.599453 0-10.941271 10.939013-10.941271 28.667213 0 39.599453l28.003422 28.003422c5.468378 5.477409 12.636874 8.204824 19.800856 8.204825s14.33022-2.727415 19.800855-8.204825c10.939013-10.929982 10.939013-28.66044-0.002258-39.599453zM627.786462 449.477162c-10.923209-10.93224-28.687534-10.93224-39.599453 0-10.941271 10.939013-10.941271 28.667213 0 39.599453l28.00568 28.003422a27.849892 27.849892 0 0 0 19.800855 8.207082c7.163981 0 14.33022-2.727415 19.800856-8.207082 10.941271-10.929982 10.941271-28.658182 0-39.599453l-28.007938-28.003422z" fill="#8a8a8a" p-id="5327"></path></svg>