<?xml version="1.0" standalone="no"?><!DOCTYPE svg PUBLIC "-//W3C//DTD SVG 1.1//EN" "http://www.w3.org/Graphics/SVG/1.1/DTD/svg11.dtd"><svg t="1555495190132" class="icon" style="" viewBox="0 0 1029 1024" version="1.1" xmlns="http://www.w3.org/2000/svg" p-id="3110" xmlns:xlink="http://www.w3.org/1999/xlink" width="200.9765625" height="200"><defs><style type="text/css"></style></defs><path d="M515.048031 1016.726289c-68.095792 0-134.182655-13.369774-196.459477-39.693682-60.129347-25.423353-114.093357-61.791909-160.437289-108.135841-46.343932-46.343932-82.712488-100.307942-108.135841-160.437288C23.76079 646.251928 10.391016 580.165066 10.391016 512.069273c0-68.095792 13.369774-134.182655 39.693682-196.459477C75.50805 255.480449 111.876607 201.516439 158.220538 155.172507c46.343932-46.343932 100.307942-82.712488 160.437289-108.135841 62.20755-26.323907 128.294412-39.693682 196.459478-39.693681 68.095792 0 134.182655 13.369774 196.459478 39.693681 60.129347 25.423353 114.093357 61.791909 160.437288 108.135841 46.205385 46.413205 82.573941 100.377216 107.997294 160.437289 26.323907 62.20755 39.693682 128.294412 39.693682 196.459477 0 68.095792-13.369774 134.182655-39.693682 196.459478-25.423353 60.129347-61.791909 114.093357-108.135841 160.437289-46.343932 46.343932-100.307942 82.712488-160.437288 108.135841-62.20755 26.254634-128.294412 39.624408-196.390205 39.624408z m0-981.604655c-64.4243 0-126.83967 12.607766-185.652821 37.476932-56.804221 24.037884-107.789474 58.39751-151.639561 102.247598C133.974834 218.626979 99.615208 269.612231 75.577324 326.416452 50.708159 385.229604 38.100392 447.644974 38.100392 512.069273s12.607766 126.83967 37.476932 185.652821c24.037884 56.804221 58.39751 107.789474 102.247598 151.639562 43.780815 43.780815 94.83534 78.209715 151.639562 102.247598 58.813151 24.869165 121.228521 37.476931 185.652821 37.476932s126.83967-12.607766 185.652821-37.476932c56.804221-24.037884 107.789474-58.39751 151.639561-102.247598 43.780815-43.780815 78.209715-94.83534 102.247599-151.639562 24.869165-58.813151 37.476931-121.228521 37.476931-185.652821s-12.607766-126.83967-37.476931-185.652821c-24.037884-56.804221-58.39751-107.789474-102.247599-151.639561-43.780815-43.780815-94.83534-78.209715-151.639561-102.247599-58.882425-24.799892-121.367068-37.407658-185.722095-37.407658z" fill="#8a8a8a" p-id="3111"></path><path d="M728.063861 302.101475H301.339467c-21.128399 0-32.627791 13.09268-32.627791 36.160736v347.267758c0 23.068056 11.499391 36.160736 32.627791 36.160736h426.724394c21.128399 0 32.627791-13.09268 32.627791-36.160736V338.262211c0-23.068056-11.499391-36.160736-32.627791-36.160736zM301.339467 321.359491h426.724394c8.65918 0 15.655798 8.174266 15.655798 18.288189v98.922473H285.752943V339.64768c0-10.044649 6.996618-18.288188 15.586524-18.288189zM728.063861 704.649439H301.339467c-8.65918 0-15.655798-7.620078-15.655798-16.971993V459.837099h457.966717v227.840347c0.069273 9.351914-6.927344 16.971993-15.586525 16.971993zM343.526992 378.994994c0 13.231227 10.737383 23.96861 23.968611 23.96861s23.96861-10.737383 23.96861-23.96861-10.737383-23.96861-23.96861-23.968611-23.96861 10.737383-23.968611 23.968611z m64.909214 0c0 13.231227 10.737383 23.96861 23.968611 23.96861s23.96861-10.737383 23.96861-23.96861-10.737383-23.96861-23.96861-23.968611-23.899337 10.737383-23.968611 23.968611z m64.978488 0c0-13.231227 10.737383-23.96861 23.96861-23.968611s23.96861 10.737383 23.96861 23.968611-10.737383 23.96861-23.96861 23.96861-23.96861-10.737383-23.96861-23.96861z m14.616696 265.317278l18.565282 0.138547 41.217697-128.294413h-18.496009l-41.28697 128.155866zM343.457719 584.806386v13.09268l83.335949 32.558518v-15.378704l-53.340549-23.34515 53.75619-21.405493 0.069273-16.002165-83.820863 30.480314z m268.434582-29.025571l0.069274 16.002164 53.75619 21.405493-53.340549 23.34515V631.912326l83.335949-32.558517v-13.092681l-83.820864-30.480313z" fill="#8a8a8a" p-id="3112"></path><path d="M728.063861 727.23258H301.339467c-11.915032 0-21.75186-3.879313-28.332837-11.291571-6.511703-7.273711-9.836829-17.52618-9.836829-30.41104V338.262211c0-12.954133 3.325125-23.137329 9.836829-30.411041 6.580977-7.342985 16.417805-11.291571 28.332837-11.29157h426.724394c11.915032 0 21.75186 3.879313 28.332838 11.29157 6.511703 7.273711 9.836829 17.52618 9.836828 30.411041v347.267758c0 12.954133-3.325125 23.137329-9.836828 30.41104-6.580977 7.412258-16.417805 11.291571-28.332838 11.291571zM301.339467 307.64335c-17.941821 0-27.085915 10.321743-27.085915 30.618861v347.267758c0 20.297118 9.144094 30.618861 27.085915 30.618861h426.724394c17.941821 0 27.085915-10.321743 27.085916-30.618861V338.262211c0-20.297118-9.144094-30.618861-27.085916-30.618861H301.339467zM728.063861 710.191314H301.339467c-11.707211 0-21.197673-10.113922-21.197673-22.513868V454.295224h469.050467v233.382222c0.069273 6.096063-2.355297 12.122852-6.580977 16.348532-3.948586 3.948586-9.074821 6.165336-14.547423 6.165336zM291.225545 465.378974v222.298472c0 6.303883 4.502774 11.430118 10.113922 11.430117h426.724394c2.493844 0 4.849141-1.039102 6.719524-2.909484 2.147477-2.147477 3.394399-5.264781 3.325125-8.520633v-222.367745H291.225545z m219.388986 184.61372l-30.20322-0.207821 44.819916-139.170342h30.133947l-44.750643 139.378163z m-15.032336-11.153024l6.927344 0.069273 37.615478-117.210661h-6.858071L495.582195 638.83967z m111.253145 1.177648v-27.085915l44.542823-19.465837-44.88919-17.872547-0.138547-27.709377 94.904614 34.498174v20.782032L606.83534 640.017318z m11.083751-19.881477v3.671492l72.252198-28.19429v-5.403328l-72.737112-26.462455v4.294954l62.62319 24.938438L617.919091 620.135841z m-185.583548 18.426735l-94.419699-36.922744v-20.782032l94.904613-34.498173-0.138547 27.709376-44.889189 17.872548 44.542822 19.465836v27.155189z m-83.335949-44.473549l72.252199 28.194291v-3.671493l-62.138277-27.224462 62.623191-24.938439v-4.294953l-72.737113 26.462454v5.472602z m400.26194-149.976999H280.211068V339.64768c0-13.161954 9.490461-23.830064 21.128399-23.830064h426.724394c11.707211 0 21.197673 10.66811 21.197673 23.830064v104.464348z m-457.966716-11.08375h446.882966V339.64768c0-6.996618-4.502774-12.746313-10.113923-12.746313H301.339467c-5.472602 0-10.044649 5.818969-10.044649 12.746313v93.380598z m206.088486-24.522798c-16.279259 0-29.510486-13.231227-29.510486-29.510486s13.231227-29.510486 29.510486-29.510486 29.510486 13.231227 29.510486 29.510486-13.231227 29.510486-29.510486 29.510486z m0-47.937221c-10.183196 0-18.426735 8.243539-18.426735 18.426735s8.243539 18.426735 18.426735 18.426735c10.183196 0 18.426735-8.243539 18.426735-18.426735s-8.243539-18.426735-18.426735-18.426735z m-64.978487 47.937221c-16.279259 0-29.510486-13.231227-29.510486-29.510486 0.069273-16.279259 13.300501-29.510486 29.510486-29.510486 16.279259 0 29.510486 13.231227 29.510485 29.510486s-13.231227 29.510486-29.510485 29.510486z m-18.426736-29.510486c0 10.183196 8.243539 18.426735 18.426736 18.426735 10.183196 0 18.426735-8.243539 18.426735-18.426735s-8.243539-18.426735-18.426735-18.426735c-10.113922 0-18.357462 8.243539-18.426736 18.426735z m-46.482478 29.510486c-16.279259 0-29.510486-13.231227-29.510486-29.510486s13.231227-29.510486 29.510486-29.510486 29.510486 13.231227 29.510485 29.510486-13.231227 29.510486-29.510485 29.510486z m0-47.937221c-10.183196 0-18.426735 8.243539-18.426735 18.426735s8.243539 18.426735 18.426735 18.426735c10.183196 0 18.426735-8.243539 18.426735-18.426735s-8.243539-18.426735-18.426735-18.426735z" fill="#8a8a8a" p-id="3113"></path></svg>