<?xml version="1.0" standalone="no"?><!DOCTYPE svg PUBLIC "-//W3C//DTD SVG 1.1//EN" "http://www.w3.org/Graphics/SVG/1.1/DTD/svg11.dtd"><svg t="1556104074142" class="icon" style="" viewBox="0 0 1024 1024" version="1.1" xmlns="http://www.w3.org/2000/svg" p-id="2114" xmlns:xlink="http://www.w3.org/1999/xlink" width="120" height="120"><defs><style type="text/css"></style></defs><path d="M800.336842 784.168421c-5.389474 0-13.473684-2.694737-16.168421-5.389474l-177.852632-148.210526c-10.778947-10.778947-13.473684-26.947368-2.694736-37.726316 10.778947-10.778947 26.947368-13.473684 37.726315-2.694737l177.852632 148.210527c10.778947 10.778947 13.473684 26.947368 2.694737 37.726316-5.389474 5.389474-13.473684 8.084211-21.557895 8.08421zM220.968421 784.168421c-8.084211 0-16.168421-2.694737-21.557895-8.08421-10.778947-10.778947-8.084211-26.947368 2.694737-37.726316l172.463158-148.210527c10.778947-10.778947 29.642105-8.084211 37.726316 2.694737 10.778947 10.778947 8.084211 26.947368-2.694737 37.726316l-172.463158 148.210526c-5.389474 2.694737-10.778947 5.389474-16.168421 5.389474z" fill="#8a8a8a" p-id="2115"></path><path d="M908.126316 921.6H118.568421c-48.505263 0-86.231579-35.031579-86.231579-80.842105V253.305263c0-43.115789 40.421053-80.842105 86.231579-80.842105h789.557895c48.505263 0 86.231579 35.031579 86.231579 80.842105v587.452632c-2.694737 43.115789-40.421053 80.842105-86.231579 80.842105zM118.568421 226.357895c-16.168421 0-32.336842 13.473684-32.336842 26.947368v587.452632c0 16.168421 13.473684 26.947368 32.336842 26.947368h789.557895c16.168421 0 32.336842-13.473684 32.336842-26.947368V253.305263c0-16.168421-13.473684-26.947368-32.336842-26.947368H118.568421z" fill="#8a8a8a" p-id="2116"></path><path d="M501.221053 684.463158c-21.557895 0-43.115789-5.389474-61.978948-18.863158l-2.694737-2.694737L61.978947 247.915789c-10.778947-10.778947-8.084211-26.947368 2.694737-37.726315 10.778947-10.778947 26.947368-8.084211 37.726316 2.694737l371.873684 412.294736c13.473684 10.778947 37.726316 10.778947 53.894737 0L910.821053 199.410526c10.778947-10.778947 26.947368-10.778947 37.726315-2.694737s10.778947 26.947368 2.694737 37.726316L565.894737 662.905263l-2.694737 2.694737c-18.863158 13.473684-40.421053 18.863158-61.978947 18.863158z" fill="#8a8a8a" p-id="2117"></path></svg>