<?xml version="1.0" standalone="no"?><!DOCTYPE svg PUBLIC "-//W3C//DTD SVG 1.1//EN" "http://www.w3.org/Graphics/SVG/1.1/DTD/svg11.dtd"><svg t="1557036859009" class="icon" style="" viewBox="0 0 1024 1024" version="1.1" xmlns="http://www.w3.org/2000/svg" p-id="1359" xmlns:xlink="http://www.w3.org/1999/xlink" width="200" height="200"><defs><style type="text/css"></style></defs><path d="M339.199383 339.061376a47.336641 47.336641 0 0 1 66.932242 0l117.131424 117.131424 117.131423-117.131424a47.336641 47.336641 0 0 1 66.932242 66.932242l-117.131423 117.131424 117.131423 117.131423a47.336641 47.336641 0 1 1-66.932242 66.932242l-117.131423-117.131423-117.131424 117.131423a47.336641 47.336641 0 0 1-66.932242-66.932242l117.131424-117.131423-117.131424-117.131424a47.336641 47.336641 0 0 1 0-66.932242zM511.999069 1023.999767A511.999069 511.999069 0 0 1 0 512.000698a46.54537 46.54537 0 0 1 93.09074 0 419.536692 419.536692 0 1 0 155.926989-325.817589H325.817589a46.54537 46.54537 0 0 1 0 93.09074H139.63611a46.54537 46.54537 0 0 1-46.54537-46.54537h-9.890891c3.141812-4.840718 6.58617-9.471983 9.890891-14.196338V46.546999a46.54537 46.54537 0 0 1 93.09074 0v70.842053A511.999069 511.999069 0 1 1 511.999069 1023.999767z" p-id="1360" fill="#FF3B30"></path></svg>