<?xml version="1.0" standalone="no"?><!DOCTYPE svg PUBLIC "-//W3C//DTD SVG 1.1//EN" "http://www.w3.org/Graphics/SVG/1.1/DTD/svg11.dtd"><svg t="1552988092071" class="icon" style="" viewBox="0 0 1024 1024" version="1.1" xmlns="http://www.w3.org/2000/svg" p-id="2995" xmlns:xlink="http://www.w3.org/1999/xlink" width="200" height="200"><defs><style type="text/css"></style></defs><path d="M63.33 318.92h201.15s36.57 0 43.89 11h-36.58v11h58.51s11 7.31 11 11h-65.85v11h73.14s7.32 3.66 7.32 14.63H129.16v11h230.4v11H125.5v11h234.06s0 7.31-3.66 11L125.5 425v11h226.75s0 11-7.31 11H121.85v11h215.77s0 11-7.32 14.63H125.5v11h190.18s-3.66 14.63-32.91 11h-36.58v11h58.52s25.6 0 29.26 11l-84.11 3.66v11h98.74s11 7.31 11 11H129.16v11l234.06-3.66s11 7.31 11 11h-245v11h248.63s3.66 3.66 0 11l-248.69 3.66v11h248.69s3.66 7.32 0 11H129.16v18.29h248.69s3.66 7.32-3.66 11h-245v11h237.69s0 11-7.31 11h-84.12v11h73.14s-3.66 11-11 11h-62.14v18.29h43.89s-7.32 14.63-62.17 11H70.65V318.92z" fill="#E6A400" p-id="2996"></path><path d="M388.82 571.26s-7.31-51.2 54.86-62.17c0 0 109.71-21.94 113.37 47.54l3.66 128 7.29 21.95h-58.5l-3.66-18.29s-29.26 29.26-73.14 18.29c0 0-51.2-3.66-51.2-58.52 0 0-3.66-36.57 32.91-47.54 0 0 54.86-14.63 73.14-14.63 0 0 36.57-7.32 7.32-32.91 0 0-47.54-11-47.54 21.94l-58.52-3.66z m186.52-58.51h54.86v21.94s29.26-29.26 51.2-29.26c0 0 58.52-11 69.49 54.86v146.29H696V574.92s-14.63-36.57-54.86-14.63c0 0-18.29 7.32-14.63 51.2v95.09h-54.83l3.66-193.83z m193.83-76.8h51.2L824 582.23l62.17-80.46h62.17l-54.86 76.8 65.83 124.34-62.17 3.66-43.89-80.46-25.6 36.57v43.89h-54.83l-3.66-270.63z m-267 179.2v25.6s-7.31 21.94-25.6 25.6c0 0-32.91 21.94-43.89-7.31 0 0-3.66-14.63 11-21.94 0-3.66 54.86-14.63 58.51-21.94z" fill="#6A1585" p-id="2997"></path></svg>