<?xml version="1.0" standalone="no"?><!DOCTYPE svg PUBLIC "-//W3C//DTD SVG 1.1//EN" "http://www.w3.org/Graphics/SVG/1.1/DTD/svg11.dtd"><svg t="1552988150591" class="icon" style="" viewBox="0 0 1325 1024" version="1.1" xmlns="http://www.w3.org/2000/svg" p-id="4116" xmlns:xlink="http://www.w3.org/1999/xlink" width="258.7890625" height="200"><defs><style type="text/css"></style></defs><path d="M528.564706 189.741176c45.176471-37.647059 97.882353-67.764706 164.141176-84.329411 39.152941-10.541176 79.811765-15.058824 118.964706-13.552941 3.011765 3.011765 12.047059 36.141176 25.6 42.164705s61.741176-9.035294 85.835294 24.094118c10.541176 21.082353-4.517647 28.611765 9.035294 43.670588 90.352941 51.2 106.917647-12.047059 143.058824 46.682353 15.058824 49.694118-61.741176 40.658824-81.317647 97.882353-6.023529-9.035294-27.105882-21.082353-33.129412-25.6-63.247059-39.152941-137.035294-54.211765-215.341176-33.129412-149.082353 39.152941-237.929412 189.741176-197.270589 337.317647C587.294118 772.517647 739.388235 858.352941 888.470588 819.2c43.670588-10.541176 97.882353-42.164706 129.505883-69.270588 27.105882-19.576471 49.694118-52.705882 72.282353-64.752941 0 0-16.564706 19.576471-19.576471 33.129411 0 0 7.529412 3.011765 21.082353-10.541176 13.552941-13.552941 24.094118-39.152941 24.094118-39.152941-1.505882 9.035294 4.517647 31.623529-21.082353 64.752941-15.058824 21.082353-30.117647 36.141176-30.117647 36.141176 4.517647-1.505882 13.552941-9.035294 27.105882-16.564706 10.541176-9.035294 25.6-34.635294 25.6-34.635294-1.505882 12.047059-18.070588 63.247059-39.152941 87.341177-33.129412 46.682353-73.788235 75.294118-73.788236 75.294117-21.082353 16.564706-42.164706 30.117647-82.823529 42.164706-227.388235 60.235294-460.8-73.788235-522.541176-298.164706-15.058824-52.705882-15.058824-112.941176-10.541177-170.164705 0 0-40.658824 25.6-90.352941 25.6-51.2 0-85.835294-42.164706-85.835294-87.341177 0-43.670588 51.2-102.4 51.2-100.894118 0 3.011765-3.011765 49.694118 43.670588 51.2 94.870588-9.035294 141.552941-82.823529 215.341176-144.564705l6.02353-9.035295z m206.305882 254.494118h206.305883c24.094118 0 42.164706 18.070588 42.164705 42.164706v128c0 24.094118-18.070588 42.164706-42.164705 42.164706H734.870588c-24.094118 0-42.164706-18.070588-42.164706-42.164706v-128c0-22.588235 21.082353-42.164706 42.164706-42.164706z" fill="#E2301F" p-id="4117"></path></svg>