<?xml version="1.0" standalone="no"?><!DOCTYPE svg PUBLIC "-//W3C//DTD SVG 1.1//EN" "http://www.w3.org/Graphics/SVG/1.1/DTD/svg11.dtd"><svg t="1553226761680" class="icon" style="" viewBox="0 0 1024 1024" version="1.1" xmlns="http://www.w3.org/2000/svg" p-id="2938" xmlns:xlink="http://www.w3.org/1999/xlink" width="200" height="200"><defs><style type="text/css"></style></defs><path d="M512.858304 514.970884c-106.749775 0-195.827621-89.909605-214.527451-208.236167 12.464587-10.236239 20.617004-27.1295 20.617004-46.264381 0-31.236679-21.70242-56.565509-48.47798-56.565509s-48.47798 25.32883-48.47798 56.565509c0 22.632987 11.408666 42.157202 27.874249 51.188571 20.988641 147.247883 130.920927 259.870113 262.999532 259.870113 132.069757 0 242.002042-112.622229 262.990683-259.870113 16.468533-9.031369 27.871299-28.555583 27.871299-51.188571 0-31.236679-21.696521-56.565509-48.472081-56.565509-26.77556 0-48.483879 25.32883-48.483879 56.565509 0 19.134881 8.156842 36.03699 20.622903 46.264381C708.682976 425.067177 619.613978 514.970884 512.858304 514.970884L512.858304 514.970884zM852.204166 5.95504 827.994671 5.95504c0 0-0.017697 0-0.029495 0L658.290771 5.95504c-0.005899 0-0.017697 0-0.017697 0l-3.037985 0c0.017697 0.079636 0.038343 0.165172 0.047192 0.241859-11.963172 1.723983-21.23345 13.607518-21.23345 28.036471 0 14.428953 9.270278 26.312489 21.23345 28.036471-0.017697 0.085535-0.029495 0.165172-0.047192 0.241859l196.966128 0c26.725419 0 48.483879 25.384871 48.483879 56.55666L900.685096 910.879305c0 31.180638-21.759935 56.55666-48.483879 56.55666L173.509493 967.435966c-26.725419 0-48.47798-25.376022-48.47798-56.55666L125.031513 119.069836c0-31.17179 21.751087-56.55666 48.47798-56.55666l172.727138 0c-0.017697-0.079636-0.029495-0.156323-0.047192-0.241859 11.963172-1.723983 21.23345-13.607518 21.23345-28.036471s-9.270278-26.312489-21.23345-28.036471c0.011798-0.085535 0.029495-0.165172 0.047192-0.241859l-3.023237 0c-0.011798 0-0.017697 0-0.017697 0L173.509493 5.956515c0 0-0.041293 0-0.061939 0C120.002615 5.999283 76.552058 56.712984 76.552058 119.072786l0 791.810944c0 62.381923 43.480053 113.114796 96.957435 113.114796l678.693199 0c53.474433 0 96.957435-50.734348 96.957435-113.114796L949.160127 119.069836C949.158652 56.680539 905.6786 5.95504 852.204166 5.95504L852.204166 5.95504z" p-id="2939" fill="#ffd149"></path></svg>