<?xml version="1.0" standalone="no"?><!DOCTYPE svg PUBLIC "-//W3C//DTD SVG 1.1//EN" "http://www.w3.org/Graphics/SVG/1.1/DTD/svg11.dtd"><svg t="1555736490670" class="icon" style="" viewBox="0 0 1024 1024" version="1.1" xmlns="http://www.w3.org/2000/svg" p-id="2224" xmlns:xlink="http://www.w3.org/1999/xlink" width="120" height="120"><defs><style type="text/css"></style></defs><path d="M409.6 357.15122a99.902439 97.404878 0 1 0 199.804878 0 99.902439 97.404878 0 1 0-199.804878 0Z" fill="#F4C338" p-id="2225"></path><path d="M354.653659 696.819512l157.346341 144.858537 157.346341-144.858537s319.687805 34.965854 319.687805 144.858537-317.190244 149.853659-474.536585 149.853658-482.029268-24.97561-482.029268-159.843902c0-94.907317 322.185366-134.868293 322.185366-134.868293z" fill="#F4C338" p-id="2226"></path><path d="M512 512c-84.917073 0-157.346341-69.931707-157.346341-154.84878 0-84.917073 69.931707-154.84878 157.346341-154.848781s157.346341 69.931707 157.346341 154.848781c0 84.917073-72.429268 154.84878-157.346341 154.84878z m0-247.258537c-49.95122 0-92.409756 39.960976-92.409756 92.409757 0 49.95122 42.458537 92.409756 92.409756 92.409756s92.409756-39.960976 92.409756-92.409756c0-49.95122-42.458537-92.409756-92.409756-92.409757z m0 609.404878c-7.492683 0-14.985366-2.497561-19.980488-7.492682-2.497561-2.497561-74.926829-59.941463-152.351219-144.858537-12.487805-12.487805-9.990244-32.468293 2.497561-44.956098s32.468293-9.990244 44.956097 2.497561c49.95122 54.946341 97.404878 97.404878 124.878049 119.882927 69.931707-59.941463 294.712195-267.239024 294.712195-444.565853 0-169.834146-124.878049-292.214634-294.712195-292.214635-172.331707 0-294.712195 119.882927-294.712195 292.214635 0 22.478049 4.995122 49.95122 12.487805 74.926829 2.497561 4.995122 2.497561 9.990244 4.995122 14.985366 0 2.497561 2.497561 7.492683 4.995122 12.487805 2.497561 2.497561 2.497561 7.492683 4.995122 9.990243 0 2.497561 0 2.497561 2.497561 2.497561 7.492683 19.980488-2.497561 37.463415-17.482927 42.458537-17.482927 7.492683-34.965854 0-42.458537-17.482927-4.995122-9.990244-7.492683-19.980488-12.487805-29.970732-2.497561-4.995122-4.995122-12.487805-4.995122-17.482926-2.497561-9.990244-4.995122-17.482927-7.492683-27.473171-4.995122-22.478049-7.492683-44.956098-7.492683-67.434146 0-52.44878 9.990244-102.4 27.473171-147.356098C199.804878 164.839024 224.780488 127.37561 259.746341 94.907317 324.682927 34.965854 414.595122 0 512 0c97.404878 0 187.317073 34.965854 252.253659 97.404878C799.219512 129.873171 824.195122 167.336585 841.678049 212.292683c17.482927 44.956098 27.473171 94.907317 27.473171 144.858537 0 57.443902-17.482927 119.882927-54.946342 187.317073-27.473171 49.95122-64.936585 104.897561-114.887805 159.843902-82.419512 94.907317-164.839024 159.843902-167.336585 162.341464-4.995122 4.995122-12.487805 7.492683-19.980488 7.492682z m0 149.853659c-132.370732 0-254.75122-14.985366-349.658537-44.956098C27.473171 936.585366 0 881.639024 0 844.17561c0-24.97561 12.487805-49.95122 34.965854-69.931708 17.482927-17.482927 44.956098-32.468293 77.42439-47.453658 62.439024-27.473171 147.356098-44.956098 247.258536-54.946342 17.482927-2.497561 32.468293 9.990244 34.965854 27.473171 2.497561 17.482927-9.990244 32.468293-27.473171 34.965854-92.409756 9.990244-172.331707 27.473171-229.775609 49.951219-54.946341 22.478049-74.926829 44.956098-74.92683 59.941464 0 14.985366 24.97561 44.956098 117.385366 74.926829 87.414634 27.473171 204.8 42.458537 329.678049 42.458537s242.263415-14.985366 329.678049-42.458537c92.409756-29.970732 117.385366-59.941463 117.385366-74.926829 0-12.487805-19.980488-34.965854-74.92683-59.941464-57.443902-22.478049-137.365854-42.458537-229.775609-49.951219-17.482927-2.497561-29.970732-17.482927-27.473171-34.965854 2.497561-17.482927 17.482927-29.970732 34.965854-27.473171 99.902439 9.990244 184.819512 29.970732 247.258536 54.946342 32.468293 14.985366 59.941463 29.970732 77.42439 47.453658 22.478049 22.478049 34.965854 44.956098 34.965854 69.931708 0 39.960976-27.473171 94.907317-162.341463 134.868292-89.912195 29.970732-212.292683 44.956098-344.663415 44.956098z m-214.790244-429.580488c0 9.990244-9.990244 19.980488-19.980488 19.980488s-19.980488-9.990244-19.980488-19.980488 9.990244-19.980488 19.980488-19.980488 19.980488 7.492683 19.980488 19.980488m-19.980488 34.965854c-19.980488 0-37.463415-17.482927-37.463414-37.463415s17.482927-37.463415 37.463414-37.463414 37.463415 17.482927 37.463415 37.463414c0 22.478049-17.482927 37.463415-37.463415 37.463415z m0-39.960976c-2.497561 0-2.497561 2.497561-2.497561 2.497561 0 2.497561 2.497561 2.497561 2.497561 2.497561 2.497561 0 2.497561-2.497561 2.497561-2.497561l-2.497561-2.497561z m0 0" fill="#323333" p-id="2227"></path></svg>