<?xml version="1.0" standalone="no"?><!DOCTYPE svg PUBLIC "-//W3C//DTD SVG 1.1//EN" "http://www.w3.org/Graphics/SVG/1.1/DTD/svg11.dtd"><svg t="1552988103598" class="icon" style="" viewBox="0 0 1024 1024" version="1.1" xmlns="http://www.w3.org/2000/svg" p-id="3239" xmlns:xlink="http://www.w3.org/1999/xlink" width="200" height="200"><defs><style type="text/css"></style></defs><path d="M568.52 255.77s-220.5-64-431.66 104.79c0 0-171.06 152.38 10.39 311.72 0 0 160.93 154.62 497 99.39 0 0 282.43-30 312.41-233.49 0 0 45.75-176.7-241.41-216.14 0 0-296.62-53.64-457.56 162.5 0 0 195.65 108.86 263.49 145.14L740.5 508.2l-96.25-48.91-119.9 61.53-97.82-53.64s94.66-86.77 241.4-60c0 0 255.6 9.47 164.09 181.43 0 0-88.36 138.84-457.56 89.93 0 0-347.11-72.57-142-309.22 0 0 82-97.81 336.07-113.59z" fill="#004098" p-id="3240"></path></svg>