<?xml version="1.0" standalone="no"?><!DOCTYPE svg PUBLIC "-//W3C//DTD SVG 1.1//EN" "http://www.w3.org/Graphics/SVG/1.1/DTD/svg11.dtd"><svg t="1553506466208" class="icon" style="" viewBox="0 0 1024 1024" version="1.1" xmlns="http://www.w3.org/2000/svg" p-id="4392" xmlns:xlink="http://www.w3.org/1999/xlink" width="200" height="200"><defs><style type="text/css"></style></defs><path d="M768 298.666667 85.333333 298.666667c-23.466667 0-42.666667 19.2-42.666667 42.666667l0 512c0 23.466667 19.2 42.666667 42.666667 42.666667l682.666667 0c23.466667 0 42.666667-19.2 42.666667-42.666667L810.666667 341.333333C810.666667 317.866667 791.466667 298.666667 768 298.666667zM768 853.333333 85.333333 853.333333 85.333333 554.666667l682.666667 0L768 853.333333zM768 426.666667 85.333333 426.666667l0-85.333333 682.666667 0L768 426.666667zM576 768l85.333333 0c12.8 0 21.333333-8.533333 21.333333-21.333333l0-85.333333c0-12.8-8.533333-21.333333-21.333333-21.333333l-85.333333 0c-12.8 0-21.333333 8.533333-21.333333 21.333333l0 85.333333C554.666667 759.466667 563.2 768 576 768zM192 682.666667l256 0c12.8 0 21.333333-8.533333 21.333333-21.333333s-8.533333-21.333333-21.333333-21.333333L192 640c-12.8 0-21.333333 8.533333-21.333333 21.333333S179.2 682.666667 192 682.666667zM938.666667 128 256 128c-23.466667 0-42.666667 19.2-42.666667 42.666667l0 64c0 12.8 8.533333 21.333333 21.333333 21.333333s21.333333-8.533333 21.333333-21.333333L256 170.666667l682.666667 0 0 512-64 0c-12.8 0-21.333333 8.533333-21.333333 21.333333 0 12.8 8.533333 21.333333 21.333333 21.333333l64 0c23.466667 0 42.666667-19.2 42.666667-42.666667L981.333333 170.666667C981.333333 147.2 962.133333 128 938.666667 128zM192 768l170.666667 0c12.8 0 21.333333-8.533333 21.333333-21.333333 0-12.8-8.533333-21.333333-21.333333-21.333333L192 725.333333c-12.8 0-21.333333 8.533333-21.333333 21.333333C170.666667 759.466667 179.2 768 192 768z" p-id="4393" fill="#bfbfbf"></path></svg>