<?xml version="1.0" standalone="no"?><!DOCTYPE svg PUBLIC "-//W3C//DTD SVG 1.1//EN" "http://www.w3.org/Graphics/SVG/1.1/DTD/svg11.dtd"><svg t="1552880707202" class="icon" style="" viewBox="0 0 1024 1024" version="1.1" xmlns="http://www.w3.org/2000/svg" p-id="7506" xmlns:xlink="http://www.w3.org/1999/xlink" width="120" height="120"><defs><style type="text/css"></style></defs><path d="M479.25369 471.128127 182.041568 471.128127c-52.789297 0-95.737458-42.947138-95.737458-95.737458L86.30411 97.390098l296.306496 0c53.289694 0 96.643084 42.947138 96.643084 95.737458L479.25369 471.128127zM147.702482 158.788469l0 216.6022c0 18.934235 15.403828 34.339086 34.339086 34.339086l235.81375 0L417.855318 193.127556c0-18.612916-16.140609-34.339086-35.244712-34.339086L147.702482 158.788469z" p-id="7507" fill="#ffffff"></path><path d="M382.609583 948.780855 86.30411 948.780855 86.30411 670.780283c0-52.789297 42.947138-95.737458 95.737458-95.737458l297.212122 0 0 278.000572C479.25369 905.832693 435.899276 948.780855 382.609583 948.780855zM147.702482 887.382483l234.908124 0c19.104103 0 35.244712-15.725146 35.244712-34.339086L417.855318 636.44222 182.041568 636.44222c-18.934235 0-34.339086 15.404852-34.339086 34.339086L147.702482 887.382483z" p-id="7508" fill="#ffffff"></path><path d="M841.957409 471.128127 544.745287 471.128127 544.745287 193.127556c0-52.789297 43.354414-95.737458 96.643084-95.737458l296.306496 0 0 278.000572C937.694867 428.179966 894.746706 471.128127 841.957409 471.128127zM606.143659 409.729755l235.81375 0c18.934235 0 34.339086-15.404852 34.339086-34.339086L876.296495 158.788469 641.388371 158.788469c-19.105127 0-35.244712 15.725146-35.244712 34.339086L606.143659 409.729755z" p-id="7509" fill="#ffffff"></path><path d="M937.694867 948.780855 641.388371 948.780855c-53.28867 0-96.643084-42.948161-96.643084-95.737458L544.745287 575.043848l297.212122 0c52.789297 0 95.737458 42.948161 95.737458 95.737458L937.694867 948.780855zM606.143659 636.44222l0 216.6022c0 18.612916 16.139585 34.339086 35.244712 34.339086l234.908124 0L876.296495 670.780283c0-18.934235-15.404852-34.339086-34.339086-34.339086L606.143659 636.441197z" p-id="7510" fill="#ffffff"></path></svg>